<svg width="29" height="29" viewBox="0 0 29 29" fill="none" xmlns="http://www.w3.org/2000/svg">
<circle cx="14.6328" cy="14.5448" r="14.1596" fill="black"/>
<path d="M22.7011 9.94411C22.6368 11.6815 22.3151 13.4188 21.736 15.0275C21.6716 15.2849 21.5429 15.6066 21.4142 15.864C21.0925 16.6361 20.7708 17.3439 20.3203 17.9874C20.0629 18.3735 19.6769 18.6952 19.2264 18.8239C17.5534 19.403 15.7517 19.7247 13.8857 19.7247C12.1483 19.7247 10.411 19.4674 8.80234 18.9526C8.54495 18.8882 8.28757 18.6952 8.09453 18.4378C7.45107 17.537 6.93629 16.5074 6.48587 15.4779C6.35718 15.2205 6.29283 14.9631 6.16414 14.6414C5.71371 13.4188 5.45633 12.0675 5.32764 10.7163C6.29283 11.6815 7.45107 12.4536 8.73799 12.9684C8.99538 12.711 9.31711 12.4536 9.51015 12.1962C10.2823 11.3597 10.9258 10.3945 11.3118 9.36499C11.8266 10.7163 12.6631 11.9388 13.6283 12.9684C14.7222 12.0032 15.623 10.7806 16.2022 9.36499C16.5882 10.3302 17.103 11.2954 17.7465 12.0675C18.0039 12.3893 18.2612 12.6467 18.5186 12.904C20.3203 12.3249 21.6716 11.2954 22.7011 9.94411Z" fill="white"/>
</svg>
